<svg xmlns="http://www.w3.org/2000/svg" viewBox="0 0 760 220" width="760" height="220" font-family="'Courier New', monospace">
<rect x="0" y="0" width="760" height="220" rx="12" fill="#0d1117"/>
<rect x="10" y="10" width="740" height="200" rx="10" fill="#11161b" stroke="#1c232b"/>
<rect x="10" y="10" width="740" height="30" rx="10" fill="#11161b"/>
<rect x="10" y="30" width="740" height="10" fill="#11161b"/>
<circle cx="32" cy="25" r="5" fill="#ff5f56"/>
<circle cx="50" cy="25" r="5" fill="#ffbd2e"/>
<circle cx="68" cy="25" r="5" fill="#27c93f"/>
<text x="380" y="29" font-size="10" fill="#8b949e" text-anchor="middle">about-me.sh</text>
<rect x="10" y="10" width="4" height="200" rx="2" fill="#39ff14"><animate attributeName="opacity" values="1;0.5;1" dur="3s" repeatCount="indefinite"/></rect>
<text x="34" y="58" font-size="20" font-weight="bold" fill="#e6edf3">About Me</text>
<circle cx="20" cy="84" r="3" fill="#39ff14"/>
<text x="34" y="90" font-size="16" fill="#e6edf3">Security researcher &amp; pentester</text>
<circle cx="20" cy="114" r="3" fill="#39ff14"/>
<text x="34" y="120" font-size="16" fill="#e6edf3">Purple teaming</text>
<circle cx="20" cy="144" r="3" fill="#39ff14"/>
<text x="34" y="150" font-size="16" fill="#e6edf3">Python + Bash automation</text>
<circle cx="20" cy="174" r="3" fill="#39ff14"/>
<text x="34" y="180" font-size="16" fill="#e6edf3">Root-causing bugs, not just patching them</text>
<rect x="437.6" y="166" width="9" height="18" fill="#39ff14"><animate attributeName="opacity" values="1;1;0;0;1" keyTimes="0;0.4;0.4;0.9;0.9" dur="1.2s" repeatCount="indefinite"/></rect>
</svg>